<svg xmlns="http://www.w3.org/2000/svg" xmlns:xlink="http://www.w3.org/1999/xlink" width="500" zoomAndPan="magnify" viewBox="0 0 375 168.749997" height="225" preserveAspectRatio="xMidYMid meet" version="1.0"><defs><g/><clipPath id="4d930b8535"><path d="M 0.277344 0 L 374.722656 0 L 374.722656 168.5 L 0.277344 168.5 Z M 0.277344 0 " clip-rule="nonzero"/></clipPath></defs><g clip-path="url(#4d930b8535)"><path fill="#ffffff" d="M 0.277344 0 L 374.722656 0 L 374.722656 168.5 L 0.277344 168.5 Z M 0.277344 0 " fill-opacity="1" fill-rule="nonzero"/><path fill="#ffffff" d="M 0.277344 0 L 374.722656 0 L 374.722656 168.5 L 0.277344 168.5 Z M 0.277344 0 " fill-opacity="1" fill-rule="nonzero"/></g><g fill="#000000" fill-opacity="1"><g transform="translate(3.775004, 118.640292)"><g><path d="M 13.535156 -0.34375 C 13.652344 -0.34375 13.878906 -0.34375 14.109375 -0.457031 C 14.226562 -0.457031 14.453125 -0.457031 14.683594 -0.457031 C 15.945312 -0.6875 16.863281 -1.261719 17.4375 -2.066406 C 17.550781 -2.410156 17.78125 -2.636719 18.011719 -2.984375 C 18.125 -3.328125 18.355469 -3.554688 18.46875 -3.898438 C 22.027344 -11.242188 24.433594 -17.320312 27.074219 -25.121094 C 28.449219 -29.597656 29.941406 -33.957031 31.433594 -38.199219 C 32.921875 -42.445312 34.53125 -46.804688 36.019531 -51.164062 C 38.429688 -58.277344 42.675781 -67.796875 48.296875 -73.074219 C 48.523438 -73.1875 48.753906 -73.417969 48.984375 -73.648438 C 49.097656 -73.878906 49.328125 -74.105469 49.441406 -74.222656 C 49.789062 -74.566406 49.558594 -75.023438 49.214844 -75.140625 C 48.753906 -75.367188 48.296875 -75.484375 47.835938 -75.484375 C 47.261719 -75.484375 46.804688 -75.367188 46.460938 -75.023438 C 45.199219 -74.222656 44.050781 -73.1875 43.25 -72.042969 C 42.332031 -70.78125 41.414062 -69.519531 40.496094 -68.140625 C 37.855469 -63.78125 35.675781 -59.078125 33.957031 -53.917969 C 30.742188 -44.855469 27.53125 -36.136719 24.664062 -26.957031 C 23.515625 -22.828125 17.4375 -5.621094 14.339844 -3.671875 C 14.226562 -3.554688 14.226562 -3.554688 14.109375 -3.554688 C 13.996094 -3.554688 13.878906 -3.554688 13.878906 -3.671875 C 13.535156 -4.015625 13.308594 -4.359375 13.191406 -4.816406 C 10.554688 -12.273438 10.324219 -20.878906 10.324219 -28.792969 C 10.210938 -31.660156 10.09375 -34.414062 10.09375 -37.511719 C 10.09375 -40.152344 10.09375 -42.675781 10.09375 -45.3125 C 10.09375 -47.953125 10.09375 -50.476562 10.210938 -53.113281 C 10.324219 -54.835938 10.324219 -56.441406 10.4375 -58.160156 C 10.4375 -59.765625 10.554688 -61.375 10.898438 -63.09375 C 11.011719 -63.667969 11.128906 -64.355469 11.242188 -65.042969 C 11.355469 -65.734375 11.355469 -66.421875 11.472656 -67.109375 C 11.585938 -67.566406 11.128906 -68.140625 10.667969 -68.257812 C 10.210938 -68.371094 9.867188 -68.484375 9.75 -68.484375 C 6.882812 -68.484375 5.390625 -58.046875 5.390625 -55.410156 C 5.277344 -52.3125 5.046875 -49.214844 4.933594 -46.117188 C 4.703125 -43.019531 4.589844 -39.921875 4.703125 -36.824219 C 4.816406 -33.957031 4.816406 -31.089844 4.933594 -28.335938 C 4.933594 -25.46875 5.046875 -22.714844 5.164062 -19.847656 C 5.507812 -15.714844 6.078125 -11.585938 6.996094 -7.570312 C 7.34375 -4.015625 9.523438 -0.34375 13.535156 -0.34375 Z M 13.535156 -0.34375 "/></g></g></g><g fill="#000000" fill-opacity="1"><g transform="translate(38.646528, 118.640292)"><g><path d="M 3.785156 -9.292969 C 6.652344 -9.292969 8.71875 -11.355469 10.4375 -13.308594 C 12.273438 -15.601562 13.996094 -18.011719 15.714844 -20.417969 C 16.976562 -22.371094 18.355469 -24.433594 19.617188 -26.386719 C 20.878906 -28.335938 22.140625 -30.285156 23.402344 -32.234375 C 23.515625 -32.578125 23.859375 -33.039062 24.207031 -33.613281 C 24.550781 -34.1875 24.777344 -34.757812 24.777344 -35.101562 C 24.777344 -35.21875 24.664062 -35.449219 24.550781 -35.5625 C 24.320312 -35.90625 23.976562 -36.019531 23.515625 -36.019531 C 23.171875 -36.019531 22.828125 -35.90625 22.597656 -35.675781 C 22.484375 -35.5625 22.371094 -35.332031 22.371094 -35.21875 C 22.253906 -35.101562 22.140625 -34.875 22.027344 -34.757812 L 15.144531 -24.433594 C 13.765625 -22.140625 6.769531 -12.273438 4.246094 -12.273438 C 3.785156 -12.273438 3.441406 -12.734375 3.328125 -13.535156 L 3.328125 -14.339844 C 3.210938 -17.09375 3.441406 -19.960938 3.898438 -22.714844 L 4.589844 -25.582031 C 4.816406 -26.386719 5.277344 -26.84375 5.964844 -26.957031 C 6.539062 -27.074219 6.996094 -27.300781 7.457031 -27.417969 C 7.914062 -27.53125 8.375 -27.648438 8.832031 -27.875 C 11.929688 -29.710938 15.144531 -32.464844 16.175781 -36.136719 C 16.976562 -38.542969 16.289062 -40.152344 13.996094 -41.183594 C 12.964844 -41.757812 12.160156 -41.757812 10.898438 -41.757812 C 9.980469 -41.757812 9.0625 -41.414062 8.03125 -40.839844 C 7.113281 -40.152344 6.425781 -39.460938 5.851562 -38.890625 C 4.472656 -37.511719 3.328125 -35.792969 2.410156 -34.070312 C -0.6875 -27.761719 -2.066406 -21.222656 -1.605469 -14.453125 L -1.261719 -12.617188 C -0.6875 -10.324219 1.605469 -9.292969 3.785156 -9.292969 Z M 6.308594 -29.367188 C 5.964844 -29.480469 5.964844 -29.710938 6.078125 -30.054688 C 6.769531 -32.351562 10.210938 -39.347656 12.734375 -39.347656 C 13.191406 -39.347656 13.535156 -39.117188 13.652344 -38.542969 L 13.652344 -38.316406 C 13.652344 -35.101562 9.75 -30.515625 6.769531 -29.367188 C 6.652344 -29.253906 6.425781 -29.253906 6.308594 -29.367188 Z M 6.308594 -29.367188 "/></g></g></g><g fill="#000000" fill-opacity="1"><g transform="translate(56.655774, 118.640292)"><g><path d="M 16.058594 -6.195312 C 16.863281 -6.195312 17.667969 -6.425781 18.355469 -6.769531 C 19.15625 -7.34375 19.960938 -8.03125 20.535156 -8.832031 L 22.597656 -11.929688 C 24.089844 -14.570312 25.695312 -17.207031 27.1875 -19.847656 C 28.679688 -22.371094 30.171875 -25.007812 31.660156 -27.648438 C 32.234375 -28.679688 32.808594 -29.710938 33.269531 -30.742188 C 33.726562 -31.777344 34.1875 -32.921875 34.757812 -33.957031 C 35.101562 -34.53125 34.757812 -34.988281 33.957031 -35.101562 C 33.839844 -35.21875 33.613281 -35.21875 33.382812 -35.21875 C 32.921875 -35.21875 32.578125 -34.988281 32.351562 -34.644531 L 31.203125 -32.464844 C 27.648438 -25.582031 23.746094 -19.042969 19.273438 -12.617188 C 18.8125 -12.046875 18.355469 -11.472656 17.78125 -11.011719 C 17.78125 -10.898438 17.667969 -10.898438 17.320312 -10.898438 C 17.320312 -11.011719 17.320312 -11.011719 17.207031 -11.128906 C 16.863281 -12.046875 17.207031 -12.964844 17.320312 -13.878906 C 18.238281 -18.46875 19.273438 -22.945312 20.535156 -27.53125 L 23.289062 -38.199219 C 23.515625 -39.347656 23.632812 -40.496094 23.632812 -41.640625 C 23.515625 -42.675781 23.058594 -43.363281 22.371094 -43.707031 L 21.679688 -44.050781 C 21.453125 -44.164062 21.109375 -44.28125 20.648438 -44.28125 C 19.15625 -44.28125 16.863281 -40.839844 16.175781 -39.460938 L 10.667969 -29.253906 C 9.175781 -26.613281 7.457031 -24.089844 5.734375 -21.453125 C 5.621094 -21.335938 5.507812 -21.222656 5.164062 -21.109375 C 4.816406 -20.992188 4.703125 -21.222656 4.703125 -21.910156 C 4.703125 -22.484375 4.703125 -22.945312 4.816406 -23.289062 C 5.164062 -24.777344 5.390625 -26.386719 5.734375 -27.992188 C 5.964844 -29.597656 6.308594 -31.203125 6.652344 -32.808594 C 6.769531 -33.613281 6.996094 -34.414062 7.226562 -35.21875 C 7.34375 -35.90625 7.570312 -36.710938 7.6875 -37.511719 C 7.800781 -38.199219 7.457031 -38.660156 6.882812 -39.003906 L 6.195312 -39.347656 L 5.964844 -39.347656 C 5.164062 -39.347656 4.703125 -38.773438 4.359375 -37.972656 L 3.328125 -35.21875 C 1.605469 -30.054688 0.6875 -24.777344 0.230469 -19.386719 C 0 -17.667969 0.6875 -16.519531 2.179688 -15.832031 L 2.636719 -15.714844 C 3.210938 -15.488281 3.785156 -15.371094 4.128906 -15.371094 C 5.046875 -15.371094 5.734375 -15.714844 6.308594 -16.519531 C 6.882812 -17.09375 7.34375 -17.667969 7.6875 -18.46875 C 9.523438 -21.566406 11.355469 -24.777344 13.078125 -27.875 L 17.78125 -36.367188 C 17.894531 -36.710938 18.125 -36.9375 18.238281 -37.054688 L 18.699219 -37.054688 C 18.699219 -37.054688 18.699219 -36.9375 18.8125 -36.824219 L 18.125 -34.300781 C 16.632812 -29.597656 15.144531 -25.007812 13.878906 -20.074219 C 12.847656 -16.058594 12.390625 -12.964844 12.390625 -8.949219 C 12.503906 -8.144531 12.847656 -7.6875 13.421875 -7.34375 C 14.226562 -6.652344 15.027344 -6.308594 16.058594 -6.195312 Z M 16.058594 -6.195312 "/></g></g></g><g fill="#000000" fill-opacity="1"><g transform="translate(84.759456, 118.640292)"><g><path d="M 3.785156 -9.292969 C 6.652344 -9.292969 8.71875 -11.355469 10.4375 -13.308594 C 12.273438 -15.601562 13.996094 -18.011719 15.714844 -20.417969 C 16.976562 -22.371094 18.355469 -24.433594 19.617188 -26.386719 C 20.878906 -28.335938 22.140625 -30.285156 23.402344 -32.234375 C 23.515625 -32.578125 23.859375 -33.039062 24.207031 -33.613281 C 24.550781 -34.1875 24.777344 -34.757812 24.777344 -35.101562 C 24.777344 -35.21875 24.664062 -35.449219 24.550781 -35.5625 C 24.320312 -35.90625 23.976562 -36.019531 23.515625 -36.019531 C 23.171875 -36.019531 22.828125 -35.90625 22.597656 -35.675781 C 22.484375 -35.5625 22.371094 -35.332031 22.371094 -35.21875 C 22.253906 -35.101562 22.140625 -34.875 22.027344 -34.757812 L 15.144531 -24.433594 C 13.765625 -22.140625 6.769531 -12.273438 4.246094 -12.273438 C 3.785156 -12.273438 3.441406 -12.734375 3.328125 -13.535156 L 3.328125 -14.339844 C 3.210938 -17.09375 3.441406 -19.960938 3.898438 -22.714844 L 4.589844 -25.582031 C 4.816406 -26.386719 5.277344 -26.84375 5.964844 -26.957031 C 6.539062 -27.074219 6.996094 -27.300781 7.457031 -27.417969 C 7.914062 -27.53125 8.375 -27.648438 8.832031 -27.875 C 11.929688 -29.710938 15.144531 -32.464844 16.175781 -36.136719 C 16.976562 -38.542969 16.289062 -40.152344 13.996094 -41.183594 C 12.964844 -41.757812 12.160156 -41.757812 10.898438 -41.757812 C 9.980469 -41.757812 9.0625 -41.414062 8.03125 -40.839844 C 7.113281 -40.152344 6.425781 -39.460938 5.851562 -38.890625 C 4.472656 -37.511719 3.328125 -35.792969 2.410156 -34.070312 C -0.6875 -27.761719 -2.066406 -21.222656 -1.605469 -14.453125 L -1.261719 -12.617188 C -0.6875 -10.324219 1.605469 -9.292969 3.785156 -9.292969 Z M 6.308594 -29.367188 C 5.964844 -29.480469 5.964844 -29.710938 6.078125 -30.054688 C 6.769531 -32.351562 10.210938 -39.347656 12.734375 -39.347656 C 13.191406 -39.347656 13.535156 -39.117188 13.652344 -38.542969 L 13.652344 -38.316406 C 13.652344 -35.101562 9.75 -30.515625 6.769531 -29.367188 C 6.652344 -29.253906 6.425781 -29.253906 6.308594 -29.367188 Z M 6.308594 -29.367188 "/></g></g></g><g fill="#000000" fill-opacity="1"><g transform="translate(102.768702, 118.640292)"><g><path d="M 2.179688 6.769531 L 3.328125 6.769531 C 3.898438 6.769531 4.246094 6.769531 4.589844 6.652344 C 6.308594 6.652344 8.71875 4.703125 9.636719 3.328125 C 15.027344 -3.097656 19.273438 -12.046875 20.074219 -20.304688 C 20.074219 -21.109375 20.417969 -21.679688 20.992188 -22.140625 C 23.289062 -24.089844 25.46875 -26.039062 27.761719 -27.875 L 35.332031 -33.613281 C 36.25 -34.414062 36.136719 -35.101562 35.101562 -35.449219 C 34.644531 -35.5625 34.300781 -35.675781 34.1875 -35.675781 C 33.957031 -35.675781 33.613281 -35.5625 33.269531 -35.332031 C 32.464844 -34.875 31.660156 -34.414062 31.089844 -33.839844 L 21.109375 -25.925781 C 20.878906 -25.695312 20.535156 -25.46875 20.074219 -25.121094 C 19.960938 -25.007812 19.730469 -25.007812 19.5 -25.238281 C 19.273438 -25.46875 19.15625 -25.695312 19.042969 -25.8125 C 18.125 -27.1875 16.632812 -27.992188 14.683594 -28.21875 C 14.570312 -28.335938 14.339844 -28.335938 14.226562 -28.335938 C 13.996094 -28.335938 13.765625 -28.335938 13.652344 -28.449219 C 13.308594 -28.566406 13.191406 -28.792969 13.308594 -29.136719 C 13.652344 -29.597656 13.878906 -30.171875 14.226562 -30.742188 C 14.796875 -31.660156 15.488281 -32.578125 16.058594 -33.613281 C 16.632812 -34.53125 17.320312 -35.449219 17.894531 -36.367188 C 18.46875 -37.28125 18.929688 -38.316406 19.273438 -39.578125 C 19.847656 -41.070312 19.15625 -42.445312 17.894531 -43.25 C 16.863281 -43.820312 15.832031 -44.28125 14.796875 -44.28125 C 14.109375 -44.28125 13.535156 -44.164062 12.964844 -43.820312 L 11.699219 -43.25 C 9.0625 -41.757812 4.816406 -39.347656 3.785156 -36.25 C 3.671875 -35.90625 3.671875 -35.5625 4.015625 -35.21875 L 4.933594 -34.644531 C 5.164062 -34.53125 5.507812 -34.414062 5.964844 -34.414062 C 6.425781 -34.414062 6.882812 -34.644531 7.34375 -35.101562 C 8.144531 -35.90625 8.832031 -36.59375 9.636719 -37.398438 C 11.128906 -38.660156 12.503906 -39.691406 14.226562 -40.722656 C 14.339844 -40.839844 14.570312 -41.070312 14.914062 -41.183594 L 15.371094 -41.296875 C 15.714844 -41.414062 15.945312 -41.183594 15.945312 -40.839844 C 15.945312 -38.890625 8.488281 -28.566406 6.996094 -26.84375 C 6.652344 -26.5 6.425781 -26.15625 6.195312 -25.925781 C 5.851562 -25.695312 5.621094 -25.351562 5.277344 -25.007812 C 5.046875 -24.777344 4.933594 -24.550781 4.816406 -24.433594 C 4.703125 -24.089844 4.816406 -23.859375 5.046875 -23.632812 L 5.164062 -23.515625 C 5.734375 -23.058594 6.308594 -22.828125 6.882812 -22.828125 C 7.34375 -22.828125 7.800781 -22.945312 8.144531 -23.289062 C 9.75 -24.433594 11.472656 -25.351562 13.421875 -26.039062 C 13.996094 -26.15625 14.339844 -26.269531 14.453125 -26.269531 C 15.257812 -26.269531 15.601562 -25.695312 15.714844 -24.433594 L 15.832031 -23.976562 C 15.945312 -22.140625 15.714844 -20.648438 13.996094 -19.386719 C 13.765625 -19.273438 13.535156 -19.042969 13.308594 -18.8125 C 13.078125 -18.46875 12.847656 -18.238281 12.734375 -18.125 C 11.472656 -16.75 10.09375 -15.371094 8.71875 -14.109375 C 7.34375 -12.734375 5.964844 -11.355469 4.703125 -9.980469 C 1.949219 -6.882812 -1.492188 -2.753906 -1.949219 1.492188 C -2.292969 4.589844 -1.03125 5.964844 2.179688 6.769531 Z M 2.292969 3.898438 C 1.949219 4.015625 1.492188 3.785156 1.492188 3.441406 C 1.375 3.328125 1.375 3.097656 1.375 2.984375 C 1.375 2.867188 1.375 2.636719 1.261719 2.523438 C 1.375 0.917969 1.722656 -0.574219 2.523438 -2.066406 C 4.703125 -5.621094 7.34375 -8.605469 10.210938 -11.699219 L 12.964844 -14.226562 C 12.964844 -14.339844 13.078125 -14.339844 13.421875 -14.339844 C 13.535156 -14.226562 13.535156 -14.109375 13.535156 -13.878906 L 12.847656 -11.816406 C 10.324219 -6.769531 6.996094 0.34375 3.441406 3.210938 C 2.984375 3.554688 2.636719 3.785156 2.292969 3.898438 Z M 2.292969 3.898438 "/></g></g></g><g fill="#000000" fill-opacity="1"><g transform="translate(131.90477, 118.640292)"><g><path d="M 18.238281 -10.898438 C 19.386719 -10.898438 20.417969 -11.355469 21.453125 -12.273438 C 22.371094 -13.078125 23.171875 -13.878906 23.976562 -14.796875 C 25.121094 -16.289062 26.269531 -18.011719 27.53125 -19.730469 L 32.351562 -27.300781 C 32.921875 -28.105469 33.382812 -29.023438 33.957031 -29.941406 C 34.414062 -30.859375 34.875 -31.777344 35.449219 -32.695312 C 35.792969 -33.269531 35.90625 -33.839844 36.019531 -34.1875 C 36.019531 -34.1875 36.019531 -34.300781 36.019531 -34.644531 C 35.90625 -35.21875 35.449219 -35.449219 34.644531 -35.449219 C 34.300781 -35.449219 34.070312 -35.332031 33.957031 -35.101562 C 33.496094 -34.644531 33.152344 -34.070312 32.921875 -33.496094 C 30.515625 -28.910156 24.320312 -19.15625 20.648438 -15.488281 C 20.304688 -15.144531 19.960938 -14.914062 19.617188 -14.683594 C 19.273438 -14.339844 18.929688 -14.109375 18.46875 -13.878906 C 18.355469 -13.878906 18.355469 -13.878906 18.355469 -13.878906 C 18.355469 -13.765625 18.355469 -13.765625 18.238281 -13.765625 C 17.894531 -13.765625 17.667969 -13.996094 17.4375 -14.339844 C 17.09375 -15.601562 17.4375 -16.863281 17.550781 -18.125 C 18.355469 -21.910156 19.042969 -25.46875 20.417969 -29.023438 C 21.335938 -31.203125 22.253906 -33.382812 23.058594 -35.5625 C 23.632812 -36.367188 25.46875 -41.527344 25.46875 -42.101562 C 25.582031 -42.675781 25.351562 -43.019531 24.894531 -43.25 C 24.550781 -43.59375 24.207031 -43.707031 23.746094 -43.707031 C 23.171875 -43.707031 22.714844 -43.476562 22.371094 -42.902344 C 21.910156 -42.101562 21.453125 -41.527344 20.992188 -40.953125 L 17.550781 -36.019531 C 17.207031 -35.675781 16.976562 -35.449219 16.75 -35.332031 C 16.75 -35.332031 16.632812 -35.332031 16.289062 -35.332031 L 15.714844 -36.59375 C 14.339844 -38.773438 12.390625 -39.808594 9.980469 -39.808594 C 8.488281 -39.808594 6.996094 -39.347656 5.621094 -38.316406 C 4.703125 -37.511719 3.898438 -36.710938 3.097656 -35.449219 C 2.636719 -34.644531 2.179688 -33.957031 1.722656 -33.269531 C 1.261719 -32.464844 0.804688 -31.660156 0.34375 -30.859375 C -1.03125 -28.21875 -1.722656 -25.351562 -1.722656 -22.253906 C -1.375 -19.5 0.6875 -18.011719 3.328125 -17.667969 L 4.015625 -17.667969 C 4.816406 -17.667969 5.507812 -17.894531 5.964844 -18.238281 C 8.144531 -20.074219 9.867188 -21.796875 11.699219 -23.976562 C 12.046875 -24.320312 12.273438 -24.550781 12.617188 -24.894531 L 12.847656 -24.894531 C 13.078125 -24.664062 13.191406 -24.550781 13.191406 -24.550781 C 13.191406 -24.433594 13.191406 -24.207031 13.191406 -24.089844 C 13.078125 -23.859375 13.078125 -23.632812 13.078125 -23.515625 C 12.964844 -22.597656 12.734375 -21.679688 12.617188 -20.765625 C 12.390625 -19.847656 12.273438 -18.929688 12.160156 -17.894531 C 12.160156 -14.339844 14.226562 -10.898438 18.238281 -10.898438 Z M 4.015625 -21.566406 C 3.671875 -21.679688 3.554688 -22.140625 3.554688 -22.714844 C 4.128906 -26.84375 8.375 -37.628906 12.046875 -37.628906 C 12.503906 -37.628906 12.847656 -37.398438 13.078125 -36.9375 C 13.421875 -36.480469 13.535156 -36.136719 13.652344 -35.90625 C 13.765625 -35.101562 14.226562 -34.53125 15.144531 -34.1875 C 15.488281 -34.070312 15.601562 -33.726562 15.488281 -33.269531 C 15.488281 -33.269531 15.371094 -33.152344 15.257812 -33.039062 C 12.617188 -29.480469 10.09375 -26.386719 6.882812 -23.289062 C 6.539062 -22.945312 6.195312 -22.714844 5.851562 -22.484375 C 5.507812 -22.253906 5.046875 -22.027344 4.703125 -21.679688 C 4.589844 -21.566406 4.359375 -21.566406 4.015625 -21.566406 Z M 4.015625 -21.566406 "/></g></g></g><g fill="#000000" fill-opacity="1"><g transform="translate(161.155554, 118.640292)"><g/></g></g><g fill="#000000" fill-opacity="1"><g transform="translate(189.947494, 118.640292)"><g><path d="M 1.261719 -2.867188 C 2.636719 -2.867188 2.867188 -3.210938 3.210938 -4.589844 L 3.210938 -4.816406 C 3.785156 -7.570312 4.472656 -10.324219 5.046875 -13.078125 C 5.621094 -15.832031 6.308594 -18.585938 6.882812 -21.453125 C 10.324219 -37.28125 16.632812 -60.683594 30.171875 -69.976562 C 31.203125 -70.78125 32.464844 -71.355469 33.839844 -71.582031 C 34.644531 -71.582031 35.21875 -71.238281 35.5625 -70.550781 C 35.90625 -69.863281 36.019531 -69.058594 36.019531 -68.140625 C 36.019531 -56.898438 30.171875 -43.59375 24.433594 -34.1875 C 22.597656 -31.546875 20.992188 -29.253906 18.355469 -27.300781 C 18.011719 -26.957031 17.550781 -26.730469 17.207031 -26.613281 C 17.09375 -26.613281 17.09375 -26.613281 17.09375 -26.613281 C 17.09375 -26.5 17.09375 -26.5 16.976562 -26.5 C 16.863281 -26.5 16.632812 -26.613281 16.519531 -26.84375 C 16.058594 -27.417969 15.832031 -28.105469 15.832031 -28.792969 C 15.714844 -30.054688 15.601562 -31.089844 15.601562 -32.351562 C 15.714844 -36.824219 17.320312 -40.609375 20.417969 -43.707031 L 20.992188 -44.28125 C 21.335938 -44.625 20.992188 -45.199219 20.535156 -45.3125 C 20.417969 -45.429688 20.191406 -45.429688 19.847656 -45.429688 C 19.5 -45.429688 19.15625 -45.3125 18.929688 -45.199219 C 18.011719 -44.625 17.207031 -44.050781 16.632812 -43.363281 C 12.964844 -39.117188 11.472656 -34.1875 12.273438 -28.679688 C 12.273438 -26.84375 13.652344 -25.007812 15.371094 -24.207031 C 16.519531 -23.859375 17.4375 -23.632812 18.238281 -23.632812 C 19.273438 -23.632812 20.191406 -23.859375 21.109375 -24.320312 C 21.566406 -24.550781 22.027344 -24.777344 22.484375 -25.121094 C 22.945312 -25.46875 23.402344 -25.695312 23.859375 -26.039062 C 30.859375 -31.546875 37.398438 -47.035156 39.234375 -55.523438 C 40.152344 -58.621094 40.609375 -62.292969 40.609375 -65.386719 C 40.265625 -69.632812 38.316406 -73.761719 33.269531 -73.761719 C 33.152344 -73.761719 32.921875 -73.761719 32.808594 -73.761719 C 32.578125 -73.648438 32.351562 -73.648438 32.234375 -73.648438 C 22.828125 -71.8125 14.453125 -56.324219 11.585938 -47.378906 C 11.128906 -46 10.667969 -44.625 10.210938 -43.25 C 9.75 -41.871094 9.292969 -40.496094 8.949219 -39.234375 C 8.832031 -39.117188 8.832031 -38.890625 8.832031 -38.773438 C 8.71875 -38.542969 8.71875 -38.316406 8.605469 -38.199219 C 8.488281 -38.085938 8.488281 -37.972656 8.375 -37.972656 C 8.257812 -37.855469 8.144531 -37.742188 8.03125 -37.628906 L 8.03125 -38.199219 C 8.832031 -41.757812 9.75 -45.3125 10.667969 -48.871094 C 11.011719 -50.359375 11.472656 -51.738281 11.816406 -53.230469 C 12.160156 -54.605469 12.617188 -55.980469 12.964844 -57.472656 C 13.421875 -59.421875 13.878906 -61.488281 14.339844 -63.554688 C 14.796875 -65.503906 15.371094 -67.566406 15.945312 -69.519531 C 16.175781 -70.09375 16.289062 -70.78125 16.289062 -71.355469 C 16.40625 -72.15625 16.058594 -72.730469 15.257812 -73.074219 C 14.683594 -73.1875 14.339844 -73.304688 14.226562 -73.304688 C 13.652344 -73.304688 13.078125 -72.960938 12.734375 -72.386719 L 11.699219 -70.4375 C 10.667969 -68.601562 9.980469 -66.652344 9.40625 -64.472656 L 4.246094 -46 C 1.148438 -34.414062 -0.34375 -22.484375 -1.375 -10.554688 L -1.722656 -7.914062 C -1.835938 -6.425781 -1.722656 -5.277344 -1.148438 -4.246094 C -0.804688 -3.328125 0 -2.867188 1.261719 -2.867188 Z M 1.261719 -2.867188 "/></g></g></g><g fill="#000000" fill-opacity="1"><g transform="translate(223.786643, 118.640292)"><g><path d="M 2.984375 -12.964844 C 4.472656 -12.964844 5.851562 -13.996094 6.882812 -14.914062 C 9.0625 -17.207031 11.011719 -19.617188 12.734375 -22.253906 C 13.765625 -23.976562 14.796875 -25.695312 15.832031 -27.417969 C 16.863281 -29.023438 17.894531 -30.628906 18.929688 -32.351562 L 19.847656 -34.070312 C 20.191406 -34.53125 19.617188 -35.21875 19.042969 -35.332031 C 18.929688 -35.449219 18.699219 -35.449219 18.355469 -35.449219 C 17.894531 -35.449219 17.4375 -35.21875 16.976562 -34.644531 C 16.632812 -34.1875 16.40625 -33.726562 16.175781 -33.382812 C 15.945312 -32.921875 15.714844 -32.464844 15.371094 -32.121094 L 11.128906 -24.894531 L 8.488281 -21.109375 C 7.570312 -19.847656 6.425781 -18.8125 5.164062 -17.550781 C 5.046875 -17.4375 4.933594 -17.4375 4.816406 -17.320312 C 4.703125 -17.207031 4.589844 -17.207031 4.472656 -17.09375 C 4.359375 -16.976562 4.246094 -16.976562 4.015625 -16.976562 C 3.671875 -17.09375 3.554688 -17.207031 3.554688 -17.550781 C 3.671875 -18.585938 3.785156 -19.5 3.898438 -20.417969 C 4.015625 -21.335938 4.128906 -22.253906 4.246094 -23.171875 C 4.816406 -26.269531 5.507812 -29.023438 6.308594 -32.121094 L 6.996094 -34.988281 C 7.113281 -35.675781 6.996094 -36.136719 6.425781 -36.367188 C 5.851562 -36.710938 5.507812 -36.824219 5.507812 -36.824219 L 5.164062 -36.824219 C 4.246094 -36.824219 3.785156 -36.136719 3.441406 -35.332031 C 0.574219 -29.828125 -0.804688 -24.089844 -0.804688 -18.238281 C -0.804688 -17.78125 -0.804688 -17.320312 -0.804688 -16.863281 C -0.804688 -16.40625 -0.6875 -15.945312 -0.574219 -15.601562 C -0.230469 -13.878906 1.261719 -12.964844 2.984375 -12.964844 Z M 8.144531 -43.019531 C 8.488281 -43.019531 8.832031 -43.019531 8.949219 -43.019531 C 9.0625 -43.019531 9.292969 -43.132812 9.636719 -43.25 C 10.4375 -43.820312 10.785156 -45.3125 10.210938 -46.117188 C 9.867188 -46.460938 9.523438 -46.917969 9.175781 -47.492188 C 8.71875 -48.066406 8.144531 -48.296875 7.570312 -48.296875 C 6.996094 -48.296875 6.539062 -48.066406 6.308594 -47.609375 C 5.964844 -46.917969 5.851562 -46.117188 5.851562 -45.199219 C 5.851562 -44.394531 6.195312 -43.707031 6.996094 -43.363281 C 7.226562 -43.25 7.457031 -43.132812 7.6875 -43.132812 C 7.800781 -43.132812 8.03125 -43.132812 8.144531 -43.019531 Z M 8.144531 -43.019531 "/></g></g></g><g fill="#000000" fill-opacity="1"><g transform="translate(236.978098, 118.640292)"><g><path d="M 2.179688 6.769531 L 3.328125 6.769531 C 3.898438 6.769531 4.246094 6.769531 4.589844 6.652344 C 6.308594 6.652344 8.71875 4.703125 9.636719 3.328125 C 15.027344 -3.097656 19.273438 -12.046875 20.074219 -20.304688 C 20.074219 -21.109375 20.417969 -21.679688 20.992188 -22.140625 C 23.289062 -24.089844 25.46875 -26.039062 27.761719 -27.875 L 35.332031 -33.613281 C 36.25 -34.414062 36.136719 -35.101562 35.101562 -35.449219 C 34.644531 -35.5625 34.300781 -35.675781 34.1875 -35.675781 C 33.957031 -35.675781 33.613281 -35.5625 33.269531 -35.332031 C 32.464844 -34.875 31.660156 -34.414062 31.089844 -33.839844 L 21.109375 -25.925781 C 20.878906 -25.695312 20.535156 -25.46875 20.074219 -25.121094 C 19.960938 -25.007812 19.730469 -25.007812 19.5 -25.238281 C 19.273438 -25.46875 19.15625 -25.695312 19.042969 -25.8125 C 18.125 -27.1875 16.632812 -27.992188 14.683594 -28.21875 C 14.570312 -28.335938 14.339844 -28.335938 14.226562 -28.335938 C 13.996094 -28.335938 13.765625 -28.335938 13.652344 -28.449219 C 13.308594 -28.566406 13.191406 -28.792969 13.308594 -29.136719 C 13.652344 -29.597656 13.878906 -30.171875 14.226562 -30.742188 C 14.796875 -31.660156 15.488281 -32.578125 16.058594 -33.613281 C 16.632812 -34.53125 17.320312 -35.449219 17.894531 -36.367188 C 18.46875 -37.28125 18.929688 -38.316406 19.273438 -39.578125 C 19.847656 -41.070312 19.15625 -42.445312 17.894531 -43.25 C 16.863281 -43.820312 15.832031 -44.28125 14.796875 -44.28125 C 14.109375 -44.28125 13.535156 -44.164062 12.964844 -43.820312 L 11.699219 -43.25 C 9.0625 -41.757812 4.816406 -39.347656 3.785156 -36.25 C 3.671875 -35.90625 3.671875 -35.5625 4.015625 -35.21875 L 4.933594 -34.644531 C 5.164062 -34.53125 5.507812 -34.414062 5.964844 -34.414062 C 6.425781 -34.414062 6.882812 -34.644531 7.34375 -35.101562 C 8.144531 -35.90625 8.832031 -36.59375 9.636719 -37.398438 C 11.128906 -38.660156 12.503906 -39.691406 14.226562 -40.722656 C 14.339844 -40.839844 14.570312 -41.070312 14.914062 -41.183594 L 15.371094 -41.296875 C 15.714844 -41.414062 15.945312 -41.183594 15.945312 -40.839844 C 15.945312 -38.890625 8.488281 -28.566406 6.996094 -26.84375 C 6.652344 -26.5 6.425781 -26.15625 6.195312 -25.925781 C 5.851562 -25.695312 5.621094 -25.351562 5.277344 -25.007812 C 5.046875 -24.777344 4.933594 -24.550781 4.816406 -24.433594 C 4.703125 -24.089844 4.816406 -23.859375 5.046875 -23.632812 L 5.164062 -23.515625 C 5.734375 -23.058594 6.308594 -22.828125 6.882812 -22.828125 C 7.34375 -22.828125 7.800781 -22.945312 8.144531 -23.289062 C 9.75 -24.433594 11.472656 -25.351562 13.421875 -26.039062 C 13.996094 -26.15625 14.339844 -26.269531 14.453125 -26.269531 C 15.257812 -26.269531 15.601562 -25.695312 15.714844 -24.433594 L 15.832031 -23.976562 C 15.945312 -22.140625 15.714844 -20.648438 13.996094 -19.386719 C 13.765625 -19.273438 13.535156 -19.042969 13.308594 -18.8125 C 13.078125 -18.46875 12.847656 -18.238281 12.734375 -18.125 C 11.472656 -16.75 10.09375 -15.371094 8.71875 -14.109375 C 7.34375 -12.734375 5.964844 -11.355469 4.703125 -9.980469 C 1.949219 -6.882812 -1.492188 -2.753906 -1.949219 1.492188 C -2.292969 4.589844 -1.03125 5.964844 2.179688 6.769531 Z M 2.292969 3.898438 C 1.949219 4.015625 1.492188 3.785156 1.492188 3.441406 C 1.375 3.328125 1.375 3.097656 1.375 2.984375 C 1.375 2.867188 1.375 2.636719 1.261719 2.523438 C 1.375 0.917969 1.722656 -0.574219 2.523438 -2.066406 C 4.703125 -5.621094 7.34375 -8.605469 10.210938 -11.699219 L 12.964844 -14.226562 C 12.964844 -14.339844 13.078125 -14.339844 13.421875 -14.339844 C 13.535156 -14.226562 13.535156 -14.109375 13.535156 -13.878906 L 12.847656 -11.816406 C 10.324219 -6.769531 6.996094 0.34375 3.441406 3.210938 C 2.984375 3.554688 2.636719 3.785156 2.292969 3.898438 Z M 2.292969 3.898438 "/></g></g></g><g fill="#000000" fill-opacity="1"><g transform="translate(266.114165, 118.640292)"><g><path d="M 2.179688 6.769531 L 3.328125 6.769531 C 3.898438 6.769531 4.246094 6.769531 4.589844 6.652344 C 6.308594 6.652344 8.71875 4.703125 9.636719 3.328125 C 15.027344 -3.097656 19.273438 -12.046875 20.074219 -20.304688 C 20.074219 -21.109375 20.417969 -21.679688 20.992188 -22.140625 C 23.289062 -24.089844 25.46875 -26.039062 27.761719 -27.875 L 35.332031 -33.613281 C 36.25 -34.414062 36.136719 -35.101562 35.101562 -35.449219 C 34.644531 -35.5625 34.300781 -35.675781 34.1875 -35.675781 C 33.957031 -35.675781 33.613281 -35.5625 33.269531 -35.332031 C 32.464844 -34.875 31.660156 -34.414062 31.089844 -33.839844 L 21.109375 -25.925781 C 20.878906 -25.695312 20.535156 -25.46875 20.074219 -25.121094 C 19.960938 -25.007812 19.730469 -25.007812 19.5 -25.238281 C 19.273438 -25.46875 19.15625 -25.695312 19.042969 -25.8125 C 18.125 -27.1875 16.632812 -27.992188 14.683594 -28.21875 C 14.570312 -28.335938 14.339844 -28.335938 14.226562 -28.335938 C 13.996094 -28.335938 13.765625 -28.335938 13.652344 -28.449219 C 13.308594 -28.566406 13.191406 -28.792969 13.308594 -29.136719 C 13.652344 -29.597656 13.878906 -30.171875 14.226562 -30.742188 C 14.796875 -31.660156 15.488281 -32.578125 16.058594 -33.613281 C 16.632812 -34.53125 17.320312 -35.449219 17.894531 -36.367188 C 18.46875 -37.28125 18.929688 -38.316406 19.273438 -39.578125 C 19.847656 -41.070312 19.15625 -42.445312 17.894531 -43.25 C 16.863281 -43.820312 15.832031 -44.28125 14.796875 -44.28125 C 14.109375 -44.28125 13.535156 -44.164062 12.964844 -43.820312 L 11.699219 -43.25 C 9.0625 -41.757812 4.816406 -39.347656 3.785156 -36.25 C 3.671875 -35.90625 3.671875 -35.5625 4.015625 -35.21875 L 4.933594 -34.644531 C 5.164062 -34.53125 5.507812 -34.414062 5.964844 -34.414062 C 6.425781 -34.414062 6.882812 -34.644531 7.34375 -35.101562 C 8.144531 -35.90625 8.832031 -36.59375 9.636719 -37.398438 C 11.128906 -38.660156 12.503906 -39.691406 14.226562 -40.722656 C 14.339844 -40.839844 14.570312 -41.070312 14.914062 -41.183594 L 15.371094 -41.296875 C 15.714844 -41.414062 15.945312 -41.183594 15.945312 -40.839844 C 15.945312 -38.890625 8.488281 -28.566406 6.996094 -26.84375 C 6.652344 -26.5 6.425781 -26.15625 6.195312 -25.925781 C 5.851562 -25.695312 5.621094 -25.351562 5.277344 -25.007812 C 5.046875 -24.777344 4.933594 -24.550781 4.816406 -24.433594 C 4.703125 -24.089844 4.816406 -23.859375 5.046875 -23.632812 L 5.164062 -23.515625 C 5.734375 -23.058594 6.308594 -22.828125 6.882812 -22.828125 C 7.34375 -22.828125 7.800781 -22.945312 8.144531 -23.289062 C 9.75 -24.433594 11.472656 -25.351562 13.421875 -26.039062 C 13.996094 -26.15625 14.339844 -26.269531 14.453125 -26.269531 C 15.257812 -26.269531 15.601562 -25.695312 15.714844 -24.433594 L 15.832031 -23.976562 C 15.945312 -22.140625 15.714844 -20.648438 13.996094 -19.386719 C 13.765625 -19.273438 13.535156 -19.042969 13.308594 -18.8125 C 13.078125 -18.46875 12.847656 -18.238281 12.734375 -18.125 C 11.472656 -16.75 10.09375 -15.371094 8.71875 -14.109375 C 7.34375 -12.734375 5.964844 -11.355469 4.703125 -9.980469 C 1.949219 -6.882812 -1.492188 -2.753906 -1.949219 1.492188 C -2.292969 4.589844 -1.03125 5.964844 2.179688 6.769531 Z M 2.292969 3.898438 C 1.949219 4.015625 1.492188 3.785156 1.492188 3.441406 C 1.375 3.328125 1.375 3.097656 1.375 2.984375 C 1.375 2.867188 1.375 2.636719 1.261719 2.523438 C 1.375 0.917969 1.722656 -0.574219 2.523438 -2.066406 C 4.703125 -5.621094 7.34375 -8.605469 10.210938 -11.699219 L 12.964844 -14.226562 C 12.964844 -14.339844 13.078125 -14.339844 13.421875 -14.339844 C 13.535156 -14.226562 13.535156 -14.109375 13.535156 -13.878906 L 12.847656 -11.816406 C 10.324219 -6.769531 6.996094 0.34375 3.441406 3.210938 C 2.984375 3.554688 2.636719 3.785156 2.292969 3.898438 Z M 2.292969 3.898438 "/></g></g></g><g fill="#000000" fill-opacity="1"><g transform="translate(295.250232, 118.640292)"><g><path d="M 18.238281 -10.898438 C 19.386719 -10.898438 20.417969 -11.355469 21.453125 -12.273438 C 22.371094 -13.078125 23.171875 -13.878906 23.976562 -14.796875 C 25.121094 -16.289062 26.269531 -18.011719 27.53125 -19.730469 L 32.351562 -27.300781 C 32.921875 -28.105469 33.382812 -29.023438 33.957031 -29.941406 C 34.414062 -30.859375 34.875 -31.777344 35.449219 -32.695312 C 35.792969 -33.269531 35.90625 -33.839844 36.019531 -34.1875 C 36.019531 -34.1875 36.019531 -34.300781 36.019531 -34.644531 C 35.90625 -35.21875 35.449219 -35.449219 34.644531 -35.449219 C 34.300781 -35.449219 34.070312 -35.332031 33.957031 -35.101562 C 33.496094 -34.644531 33.152344 -34.070312 32.921875 -33.496094 C 30.515625 -28.910156 24.320312 -19.15625 20.648438 -15.488281 C 20.304688 -15.144531 19.960938 -14.914062 19.617188 -14.683594 C 19.273438 -14.339844 18.929688 -14.109375 18.46875 -13.878906 C 18.355469 -13.878906 18.355469 -13.878906 18.355469 -13.878906 C 18.355469 -13.765625 18.355469 -13.765625 18.238281 -13.765625 C 17.894531 -13.765625 17.667969 -13.996094 17.4375 -14.339844 C 17.09375 -15.601562 17.4375 -16.863281 17.550781 -18.125 C 18.355469 -21.910156 19.042969 -25.46875 20.417969 -29.023438 C 21.335938 -31.203125 22.253906 -33.382812 23.058594 -35.5625 C 23.632812 -36.367188 25.46875 -41.527344 25.46875 -42.101562 C 25.582031 -42.675781 25.351562 -43.019531 24.894531 -43.25 C 24.550781 -43.59375 24.207031 -43.707031 23.746094 -43.707031 C 23.171875 -43.707031 22.714844 -43.476562 22.371094 -42.902344 C 21.910156 -42.101562 21.453125 -41.527344 20.992188 -40.953125 L 17.550781 -36.019531 C 17.207031 -35.675781 16.976562 -35.449219 16.75 -35.332031 C 16.75 -35.332031 16.632812 -35.332031 16.289062 -35.332031 L 15.714844 -36.59375 C 14.339844 -38.773438 12.390625 -39.808594 9.980469 -39.808594 C 8.488281 -39.808594 6.996094 -39.347656 5.621094 -38.316406 C 4.703125 -37.511719 3.898438 -36.710938 3.097656 -35.449219 C 2.636719 -34.644531 2.179688 -33.957031 1.722656 -33.269531 C 1.261719 -32.464844 0.804688 -31.660156 0.34375 -30.859375 C -1.03125 -28.21875 -1.722656 -25.351562 -1.722656 -22.253906 C -1.375 -19.5 0.6875 -18.011719 3.328125 -17.667969 L 4.015625 -17.667969 C 4.816406 -17.667969 5.507812 -17.894531 5.964844 -18.238281 C 8.144531 -20.074219 9.867188 -21.796875 11.699219 -23.976562 C 12.046875 -24.320312 12.273438 -24.550781 12.617188 -24.894531 L 12.847656 -24.894531 C 13.078125 -24.664062 13.191406 -24.550781 13.191406 -24.550781 C 13.191406 -24.433594 13.191406 -24.207031 13.191406 -24.089844 C 13.078125 -23.859375 13.078125 -23.632812 13.078125 -23.515625 C 12.964844 -22.597656 12.734375 -21.679688 12.617188 -20.765625 C 12.390625 -19.847656 12.273438 -18.929688 12.160156 -17.894531 C 12.160156 -14.339844 14.226562 -10.898438 18.238281 -10.898438 Z M 4.015625 -21.566406 C 3.671875 -21.679688 3.554688 -22.140625 3.554688 -22.714844 C 4.128906 -26.84375 8.375 -37.628906 12.046875 -37.628906 C 12.503906 -37.628906 12.847656 -37.398438 13.078125 -36.9375 C 13.421875 -36.480469 13.535156 -36.136719 13.652344 -35.90625 C 13.765625 -35.101562 14.226562 -34.53125 15.144531 -34.1875 C 15.488281 -34.070312 15.601562 -33.726562 15.488281 -33.269531 C 15.488281 -33.269531 15.371094 -33.152344 15.257812 -33.039062 C 12.617188 -29.480469 10.09375 -26.386719 6.882812 -23.289062 C 6.539062 -22.945312 6.195312 -22.714844 5.851562 -22.484375 C 5.507812 -22.253906 5.046875 -22.027344 4.703125 -21.679688 C 4.589844 -21.566406 4.359375 -21.566406 4.015625 -21.566406 Z M 4.015625 -21.566406 "/></g></g></g><g fill="#000000" fill-opacity="1"><g transform="translate(324.501016, 118.640292)"><g><path d="M 8.488281 -70.09375 C 8.832031 -70.09375 9.40625 -70.320312 9.980469 -70.664062 L 11.585938 -72.042969 C 12.390625 -72.730469 13.078125 -73.417969 13.652344 -74.222656 C 14.226562 -74.910156 14.914062 -75.597656 15.601562 -76.285156 C 15.945312 -76.632812 16.289062 -76.976562 16.519531 -77.203125 C 16.632812 -77.433594 16.863281 -77.664062 16.976562 -77.777344 C 18.011719 -79.613281 18.8125 -81.21875 18.46875 -83.054688 C 18.125 -85.003906 16.632812 -85.578125 14.914062 -85.578125 C 13.996094 -85.464844 13.308594 -85.121094 12.734375 -84.546875 C 11.585938 -83.628906 11.355469 -82.480469 12.160156 -81.21875 C 12.160156 -81.105469 12.273438 -80.875 12.390625 -80.761719 C 12.964844 -80.1875 12.847656 -79.613281 12.273438 -78.808594 C 10.4375 -76.515625 8.488281 -74.453125 6.078125 -72.960938 C 5.507812 -72.617188 5.507812 -72.042969 5.964844 -71.46875 C 6.308594 -71.125 6.539062 -70.894531 6.769531 -70.78125 C 7.34375 -70.320312 7.914062 -70.09375 8.488281 -70.09375 Z M 8.488281 -70.09375 "/></g></g></g><g fill="#000000" fill-opacity="1"><g transform="translate(347.786886, 118.640292)"><g><path d="M 4.015625 0.457031 C 8.144531 0.457031 11.816406 -4.589844 12.503906 -8.605469 C 13.308594 -12.160156 13.535156 -15.488281 12.273438 -19.042969 C 11.929688 -20.191406 12.273438 -21.109375 13.078125 -21.910156 C 13.308594 -22.027344 13.535156 -22.253906 13.652344 -22.484375 C 15.371094 -24.207031 17.207031 -25.925781 18.929688 -27.648438 C 20.648438 -29.253906 22.371094 -30.972656 24.089844 -32.695312 C 24.320312 -33.039062 24.664062 -33.382812 25.121094 -33.839844 C 25.46875 -34.414062 25.46875 -34.757812 24.894531 -34.988281 C 24.550781 -35.21875 24.207031 -35.332031 23.746094 -35.332031 C 23.402344 -35.332031 23.058594 -35.21875 22.714844 -34.875 L 13.078125 -25.351562 C 12.617188 -24.894531 12.046875 -24.433594 11.472656 -23.976562 C 11.355469 -23.859375 11.128906 -23.746094 11.011719 -23.746094 C 9.980469 -23.746094 7.226562 -33.152344 7.113281 -33.382812 C 6.769531 -34.644531 6.652344 -36.019531 6.769531 -37.511719 C 6.652344 -39.003906 6.769531 -40.378906 7.34375 -41.640625 C 7.914062 -43.363281 8.71875 -44.738281 10.4375 -45.542969 C 10.554688 -45.65625 10.667969 -45.65625 10.785156 -45.65625 C 11.128906 -45.65625 11.472656 -45.542969 11.585938 -45.199219 C 12.160156 -44.050781 12.273438 -43.019531 12.046875 -42.101562 C 11.699219 -39.921875 11.472656 -37.972656 10.898438 -36.019531 C 10.785156 -35.675781 10.667969 -35.21875 10.667969 -34.875 C 10.554688 -34.414062 10.554688 -33.957031 10.4375 -33.613281 C 10.324219 -33.039062 10.554688 -32.578125 11.242188 -32.464844 C 11.355469 -32.464844 11.472656 -32.464844 11.585938 -32.464844 C 11.699219 -32.351562 11.699219 -32.351562 11.816406 -32.351562 C 12.390625 -32.351562 12.847656 -32.695312 13.078125 -33.269531 L 13.421875 -33.957031 C 14.683594 -36.9375 15.371094 -40.035156 15.371094 -43.132812 C 15.144531 -45.082031 14.226562 -46.34375 12.734375 -46.917969 C 12.160156 -47.261719 11.472656 -47.492188 10.898438 -47.609375 C 10.324219 -47.835938 9.75 -47.953125 9.0625 -47.953125 C 8.03125 -47.953125 6.882812 -47.492188 5.851562 -46.691406 C 4.015625 -45.199219 2.984375 -43.25 2.636719 -40.953125 C 2.179688 -37.972656 2.292969 -35.101562 3.097656 -32.351562 C 4.015625 -29.023438 5.277344 -25.695312 6.539062 -22.484375 C 7.570312 -19.5 7.800781 -20.417969 5.734375 -18.011719 C 3.328125 -15.144531 1.375 -12.160156 -0.34375 -9.0625 C -0.457031 -8.605469 -0.6875 -8.144531 -0.917969 -7.6875 C -1.148438 -7.226562 -1.375 -6.769531 -1.492188 -6.308594 C -2.292969 -3.554688 -0.804688 -0.917969 1.949219 0.113281 C 2.636719 0.34375 3.328125 0.457031 4.015625 0.457031 Z M 3.441406 -1.835938 C 3.097656 -1.835938 2.753906 -1.949219 2.523438 -2.292969 C 1.835938 -3.097656 1.605469 -4.128906 1.722656 -5.390625 C 1.722656 -7.800781 5.507812 -13.308594 7.113281 -15.144531 C 7.226562 -15.488281 7.457031 -15.488281 7.800781 -15.371094 C 7.914062 -15.257812 8.03125 -15.027344 8.03125 -14.914062 C 8.144531 -14.570312 8.257812 -14.109375 8.257812 -13.652344 C 8.257812 -13.191406 8.257812 -12.617188 8.144531 -12.046875 C 8.144531 -10.554688 7.914062 -9.0625 7.457031 -7.457031 C 7.113281 -5.964844 5.046875 -1.835938 3.441406 -1.835938 Z M 3.441406 -1.835938 "/></g></g></g></svg>